Coordinates
version=1
nRows=13
nColumns=40
inDegrees=yes

Units are S.I. units (second, meters, Newtons, ...)
Angles are in degrees.

endheader
time	pelvis_tilt	pelvis_list	pelvis_rotation	pelvis_tx	pelvis_ty	pelvis_tz	hip_flexion_r	hip_adduction_r	hip_rotation_r	knee_angle_r	knee_angle_r_beta	ankle_angle_r	subtalar_angle_r	mtp_angle_r	hip_flexion_l	hip_adduction_l	hip_rotation_l	knee_angle_l	knee_angle_l_beta	ankle_angle_l	subtalar_angle_l	mtp_angle_l	lumbar_extension	lumbar_bending	lumbar_rotation	arm_flex_r	arm_add_r	arm_rot_r	elbow_flex_r	pro_sup_r	wrist_flex_r	wrist_dev_r	arm_flex_l	arm_add_l	arm_rot_l	elbow_flex_l	pro_sup_l	wrist_flex_l	wrist_dev_l
     25.83750000	     -4.61234503	     -6.73421889	      2.79245419	      1.01572288	      0.93089750	      0.48405738	      8.07486896	      7.33661791	    -16.56053807	      9.67531678	      9.67531678	      9.17452290	      5.94050306	     -5.33326015	     36.39028105	    -13.83674615	     -0.13322494	     47.81560757	     47.81560757	     13.34300895	    -18.79399078	     18.18091369	    -10.84914184	      7.06757790	      4.32797274	     31.38296741	    -16.13231050	     -0.29448492	     59.38179553	     45.23977978	      0.00000000	      0.00000000	      0.98863497	     -7.27120497	      0.62931455	     27.94551016	     46.38071888	      0.00000000	      0.00000000
     25.84957143	     -4.64201653	     -6.64167708	      3.04625112	      1.01439602	      0.93046675	      0.48357591	      7.76227913	      7.22737287	    -16.50347925	      9.81012325	      9.81012325	      9.57805090	      5.61112820	     -5.41252789	     36.50492874	    -13.26286521	      0.21699520	     44.48738795	     44.48738795	     12.95151693	    -18.52687890	     17.86484283	    -10.84374912	      6.96358377	      4.19598536	     33.15756975	    -16.26558202	     -0.24801846	     61.85820274	     45.16336698	      0.00000000	      0.00000000	     -0.31124758	     -7.22529091	      0.72701337	     26.81701625	     46.33695103	      0.00000000	      0.00000000
     25.86164286	     -4.68558583	     -6.56890355	      3.29490820	      1.01308711	      0.92994619	      0.48296722	      7.46023947	      7.12589476	    -16.48606097	      9.94345949	      9.94345949	      9.96783987	      5.34292771	     -5.50177764	     36.54340549	    -12.70592022	      0.55559307	     41.11028130	     41.11028130	     12.47703609	    -18.08243143	     17.46447036	    -10.83838933	      6.89971058	      4.13073104	     34.83279535	    -16.46931628	     -0.23226041	     64.27865503	     45.09088927	      0.00000000	      0.00000000	     -1.56359525	     -7.18151103	      0.83810251	     25.89628556	     46.29055365	      0.00000000	      0.00000000
     25.87371429	     -4.75373499	     -6.56380096	      3.55482524	      1.01180946	      0.92928858	      0.48223723	      7.17333476	      7.08859862	    -16.55716214	     10.05181968	     10.05181968	     10.36648982	      5.12533097	     -5.59180966	     36.56146558	    -12.23684395	      0.83856116	     37.77662086	     37.77662086	     11.97672763	    -17.32528525	     16.93513373	    -10.79730191	      6.89036971	      4.09371462	     36.46594036	    -16.70283339	     -0.25509351	     66.72574917	     45.02008376	      0.00000000	      0.00000000	     -2.81116869	     -7.10451806	      0.97467374	     25.13621009	     46.23794124	      0.00000000	      0.00000000
     25.88578571	     -4.79620933	     -6.53840029	      3.80623590	      1.01072093	      0.92863551	      0.48143469	      6.82323165	      7.03145148	    -16.59471789	     10.12778809	     10.12778809	     10.78214086	      5.00793257	     -5.66855484	     36.46469060	    -11.78424860	      1.02190027	     34.53110454	     34.53110454	     11.49039208	    -16.28720656	     16.26651342	    -10.77097859	      6.91107668	      4.06012708	     37.98385093	    -16.86361865	     -0.28808683	     69.24212238	     44.94822447	      0.00000000	      0.00000000	     -4.07203654	     -7.09534870	      1.13268627	     24.50315562	     46.17892528	      0.00000000	      0.00000000
     25.89785714	     -4.86147178	     -6.65958852	      4.05782577	      1.00970255	      0.92780548	      0.48054427	      6.46177708	      7.12988054	    -16.76507087	     10.13630365	     10.13630365	     11.25928085	      5.07967589	     -5.45038139	     36.32135846	    -11.51552591	      1.09168045	     31.28082682	     31.28082682	      9.87683717	    -15.27461610	     12.69589948	    -10.76683090	      7.08964508	      4.86984459	     38.49136546	    -18.15105587	     -0.54499783	     73.84716818	     44.83845498	      0.00000000	      0.00000000	     -4.92937739	     -7.07765644	      2.00059477	     24.31468000	     45.96091571	      0.00000000	      0.00000000
     25.90992857	     -4.91692331	     -6.67556811	      4.30061486	      1.00876849	      0.92713594	      0.47957490	      6.04854154	      7.13201599	    -16.83158482	     10.08033440	     10.08033440	     11.60985376	      4.97698201	     -5.52990574	     36.23306457	    -11.18190082	      0.94815196	     28.54482614	     28.54482614	      9.67444982	    -13.74764604	     12.88105483	    -10.64134420	      7.13342758	      4.69472963	     40.21271215	    -17.99769033	     -0.80123153	     75.19624105	     44.81567072	      0.00000000	      0.00000000	     -6.15336067	     -7.08095483	      2.18824229	     23.79824464	     45.89843755	      0.00000000	      0.00000000
     25.92200000	     -5.07024085	     -6.88995760	      4.56921333	      1.00783583	      0.92613790	      0.47851034	      5.75777255	      7.33256751	    -16.93822602	     10.01762514	     10.01762514	     11.93268036	      4.91848270	     -5.62602741	     36.45793225	    -10.98406724	      0.98302588	     26.41639780	     26.41639780	      9.43702169	    -12.45450465	     13.13489472	    -10.38074133	      7.41020076	      4.81152199	     41.87656223	    -18.28151442	     -1.09466466	     76.18200396	     44.80260265	      0.00000000	      0.00000000	     -7.27309214	     -7.03372536	      2.24860194	     23.43580776	     45.86376791	      0.00000000	      0.00000000
     25.93407143	     -4.97262032	     -6.85499760	      4.78392426	      1.00737485	      0.92574248	      0.47745822	      4.99298135	      7.33282293	    -17.00362137	      9.69777907	      9.69777907	     12.37994186	      5.12149119	     -5.28344439	     36.11451304	    -10.76619713	      0.17295494	     24.27868737	     24.27868737	      8.90982132	    -10.64179024	     12.18975864	    -10.54186024	      7.35988432	      4.68436594	     42.78945798	    -18.14895874	     -1.31664097	     79.58737918	     44.73940297	      0.00000000	      0.00000000	     -8.76550739	     -7.24802793	      3.17978479	     24.13748093	     45.62159458	      0.00000000	      0.00000000
     25.94614286	     -5.11329621	     -6.96895172	      5.02024164	      1.00674953	      0.92485058	      0.47621685	      4.61597982	      7.43754941	    -17.06932145	      9.56189017	      9.56189017	     12.70201556	      5.05154920	     -5.33889048	     36.25249461	    -10.51970821	     -0.16905632	     22.85288313	     22.85288313	      8.56684172	     -9.74221346	     12.46107887	    -10.25219156	      7.49999713	      4.72347089	     44.27559202	    -18.31520706	     -1.57315409	     80.44794342	     44.72927148	      0.00000000	      0.00000000	     -9.77336722	     -7.21182480	      3.26746025	     23.80992800	     45.58520774	      0.00000000	      0.00000000
     25.95821429	     -5.03017670	     -6.91064412	      5.22356756	      1.00649814	      0.92446502	      0.47494841	      3.84334641	      7.41401456	    -17.04494005	      9.21758344	      9.21758344	     13.03980185	      5.11555297	     -5.25826844	     35.96464870	    -10.23958930	     -0.99127416	     21.64977235	     21.64977235	      8.25201098	     -8.70095444	     12.59021183	    -10.27573361	      7.43107729	      4.34515393	     45.43009001	    -17.80850193	     -1.63239157	     82.07512015	     44.69002876	      0.00000000	      0.00000000	    -10.89399112	     -7.22867373	      3.46265250	     23.61113900	     45.52293541	      0.00000000	      0.00000000
     25.97028571	     -5.03957900	     -6.94689000	      5.41652111	      1.00639284	      0.92378024	      0.47356306	      3.16592730	      7.47888203	    -17.04504916	      8.86327350	      8.86327350	     13.36666212	      5.19211636	     -5.10678633	     35.84149691	    -10.03200985	     -1.72104661	     20.96397314	     20.96397314	      7.99092022	     -8.02046171	     12.54132254	    -10.17215306	      7.52333566	      4.14490300	     46.55363491	    -17.58330040	     -1.79377380	     83.73243025	     44.65514259	      0.00000000	      0.00000000	    -12.00055889	     -7.24341873	      3.65507537	     23.66146124	     45.45878349	      0.00000000	      0.00000000
     25.98235714	     -5.16813945	     -6.99055073	      5.55538792	      1.00635824	      0.92279448	      0.47215248	      2.72602330	      7.50142364	    -17.01462654	      8.73946065	      8.73946065	     13.73081166	      5.18407071	     -5.13327536	     35.94789280	     -9.80684004	     -2.14633816	     20.88647927	     20.88647927	      7.63613893	     -7.98399696	     12.61919802	     -9.79507432	      7.47281251	      4.29329549	     47.44969760	    -17.85250136	     -2.01821602	     84.28813848	     44.65049215	      0.00000000	      0.00000000	    -12.90166563	     -7.25391964	      3.68217596	     23.46493199	     45.43522832	      0.00000000	      0.00000000
